<?xml version="1.0" standalone="no"?>
<!DOCTYPE svg PUBLIC "-//W3C//DTD SVG 20010904//EN"
 "http://www.w3.org/TR/2001/REC-SVG-20010904/DTD/svg10.dtd">
<svg version="1.0" xmlns="http://www.w3.org/2000/svg"
 width="927.000000pt" height="405.000000pt" viewBox="0 0 927.000000 405.000000"
 preserveAspectRatio="xMidYMid meet">

<g transform="translate(0.000000,405.000000) scale(0.100000,-0.100000)"
fill="#000000" stroke="none">
<path d="M1015 2610 l-580 -580 118 0 117 0 0 -580 0 -580 930 0 930 0 0 580
0 580 117 0 118 0 -233 233 -232 232 0 233 0 232 55 0 55 0 0 115 0 115 -230
0 -230 0 0 -115 0 -114 58 -3 57 -3 3 -107 c1 -60 -1 -108 -5 -108 -5 0 -109
101 -233 225 -124 124 -227 225 -230 225 -3 0 -266 -261 -585 -580z m585 -485
c145 -50 240 -199 227 -355 -3 -36 -11 -78 -18 -93 -12 -27 -9 -30 119 -161
l132 -134 0 -50 c0 -43 -5 -55 -31 -81 -26 -27 -38 -31 -81 -31 l-51 0 -133
132 c-131 129 -134 131 -161 119 -15 -7 -57 -15 -93 -18 -171 -14 -323 96
-366 265 -66 263 196 497 456 407z"/>
<path d="M1409 2016 c-85 -30 -143 -102 -155 -189 -19 -135 90 -259 225 -259
134 0 232 95 233 225 2 160 -155 276 -303 223z"/>
<path d="M6037 2294 c-4 -4 -7 -247 -7 -541 l0 -533 65 0 65 0 -2 538 -3 537
-55 3 c-31 2 -59 0 -63 -4z"/>
<path d="M3620 1735 l0 -505 70 0 70 0 2 203 3 202 112 3 112 3 24 -38 c13
-21 63 -113 112 -205 l90 -168 72 0 c40 0 73 2 73 4 0 2 -52 96 -115 210 -63
114 -115 210 -115 215 0 5 14 14 30 21 45 19 109 86 133 138 16 35 21 67 21
122 -1 157 -83 255 -242 289 -29 6 -143 11 -252 11 l-200 0 0 -505z m425 384
c86 -24 134 -89 135 -181 0 -83 -32 -136 -105 -169 -33 -15 -65 -19 -177 -19
l-138 0 0 190 0 190 123 0 c67 0 140 -5 162 -11z"/>
<path d="M6390 1730 l0 -512 228 4 c202 4 233 6 280 25 75 30 113 62 147 124
27 48 30 63 30 139 0 68 -5 93 -22 125 -26 50 -68 90 -112 108 l-34 15 41 26
c68 42 96 96 100 185 3 68 1 82 -25 131 -30 57 -78 98 -143 120 -22 8 -118 15
-262 17 l-228 5 0 -512z m461 373 c47 -30 64 -64 64 -134 0 -67 -20 -102 -81
-136 -35 -20 -53 -23 -176 -23 l-138 0 0 161 0 161 148 -3 c131 -4 151 -7 183
-26z m-27 -414 c60 -15 103 -61 115 -124 18 -96 -9 -164 -81 -206 -40 -22 -53
-24 -188 -24 l-145 0 -3 183 -2 182 130 0 c72 0 151 -5 174 -11z"/>
<path d="M4674 1969 c-155 -59 -243 -244 -214 -449 13 -95 48 -166 106 -220
60 -55 120 -80 208 -87 115 -9 227 34 286 110 22 27 22 28 4 48 -38 42 -51 43
-97 5 -56 -46 -86 -56 -160 -56 -108 0 -190 69 -212 178 -7 31 -10 60 -8 65 2
4 119 7 259 7 l254 0 0 33 c-1 67 -21 173 -44 222 -65 139 -232 202 -382 144z
m207 -112 c38 -25 76 -94 81 -147 l3 -35 -189 -3 -188 -2 7 37 c13 70 54 131
110 161 11 6 47 12 81 12 47 0 69 -5 95 -23z"/>
<path d="M5405 1970 c-88 -34 -165 -118 -165 -180 0 -18 6 -20 65 -20 56 0 65
3 65 18 0 50 81 101 160 102 96 0 160 -63 160 -156 l0 -54 -107 0 c-109 0
-182 -13 -239 -43 -40 -21 -101 -89 -111 -124 -15 -53 -8 -136 15 -180 68
-131 278 -164 403 -63 l38 30 11 -40 11 -40 63 0 c34 0 65 2 68 6 3 3 -1 26
-8 51 -10 34 -14 108 -14 273 0 266 -8 305 -70 368 -23 23 -61 47 -87 56 -66
22 -194 20 -258 -4z m285 -459 c0 -71 -3 -83 -26 -111 -83 -99 -259 -102 -299
-6 -19 45 -19 79 0 116 27 53 102 78 233 79 l92 1 0 -79z"/>
<path d="M7260 1692 c0 -320 5 -353 62 -411 46 -47 84 -63 159 -69 78 -5 164
16 207 53 17 14 33 25 36 25 3 0 6 -16 6 -35 l0 -35 60 0 60 0 0 380 0 380
-65 0 -65 0 0 -280 0 -279 -30 -35 c-41 -47 -104 -70 -175 -64 -59 5 -86 22
-113 73 -14 25 -17 73 -20 308 l-4 277 -59 0 -59 0 0 -288z"/>
<path d="M7970 1971 c0 -4 45 -134 101 -287 56 -154 115 -319 131 -369 l30
-90 -21 -57 c-38 -98 -86 -138 -166 -138 l-35 0 0 -49 c0 -55 7 -61 75 -61 57
0 93 14 133 53 43 41 68 82 91 148 11 30 55 158 99 284 44 127 107 308 140
403 l60 172 -68 0 -69 0 -46 -147 c-26 -82 -66 -209 -89 -283 l-43 -135 -94
283 -94 282 -67 0 c-38 0 -68 -4 -68 -9z"/>
</g>
</svg>
